<svg width="18" height="19" viewBox="0 0 18 19" fill="none" xmlns="http://www.w3.org/2000/svg">
<path fill-rule="evenodd" clip-rule="evenodd" d="M9 18.5137C13.9706 18.5137 18 14.4842 18 9.51367C18 4.54311 13.9706 0.513672 9 0.513672C4.02944 0.513672 0 4.54311 0 9.51367C0 14.4842 4.02944 18.5137 9 18.5137ZM12.8536 7.36723C13.0488 7.17196 13.0488 6.85538 12.8536 6.66012C12.6583 6.46486 12.3417 6.46486 12.1464 6.66012L7.5 11.3066L5.85355 9.66012C5.65829 9.46486 5.34171 9.46486 5.14645 9.66012C4.95118 9.85538 4.95118 10.172 5.14645 10.3672L6.93431 12.1551L6.94269 12.1635L6.9427 12.1635C6.97881 12.1997 7.02984 12.2508 7.08057 12.2916C7.14269 12.3416 7.24757 12.413 7.39571 12.4364C7.46481 12.4474 7.53519 12.4474 7.60429 12.4364C7.75243 12.413 7.85731 12.3416 7.91943 12.2916C7.97016 12.2508 8.0212 12.1997 8.05731 12.1635L8.06569 12.1551L12.8536 7.36723Z" fill="#07070A"/>
</svg>
