<svg xmlns="http://www.w3.org/2000/svg" width="40" height="40" fill="none"><path fill="#FAD007" d="M19.24.015a19.97 19.97 0 0 1 10.855 2.72c4.282 2.492 7.576 6.632 9.02 11.375a20.1 20.1 0 0 1-.276 12.611 20.04 20.04 0 0 1-5.957 8.575 19.94 19.94 0 0 1-9.24 4.37c-4.212.786-8.672.176-12.51-1.735a20.1 20.1 0 0 1-5.812-4.348 19.96 19.96 0 0 1-4.776-8.932c-.875-3.676-.695-7.602.546-11.174C2.765 8.553 6.463 4.363 11.13 2.072A19.85 19.85 0 0 1 19.24.015m5.368 8.219c-4.4 3.13-8.796 6.268-13.197 9.398-.58.333-1.048.995-.88 1.689a.875.875 0 0 0 .878.674c3.421.007 6.84-.055 10.26-.01l-.286.136c-1.721.61-3.448 1.207-5.166 1.83l-2.356 8.368c-.08.289-.191.584-.145.889a.91.91 0 0 0 .64.749c.38.112.784-.016 1.098-.236l13.354-9.513c.541-.367.883-1.134.569-1.75-.149-.33-.532-.475-.875-.461-1.756-.004-3.514.002-5.27-.003 1.002-3.567 2.009-7.132 3.01-10.699.102-.359.049-.794-.24-1.053-.387-.347-.989-.29-1.394-.008"/></svg>